<svg xmlns="http://www.w3.org/2000/svg" xmlns:xlink="http://www.w3.org/1999/xlink" aria-hidden="true" role="img" class="iconify iconify--logos" width="31.88" height="32" preserveAspectRatio="xMidYMid meet" viewBox="0 0 256 257"><defs><linearGradient id="IconifyId1813088fe1fbc01fb466" x1="-.828%" x2="57.636%" y1="7.652%" y2="78.411%"><stop offset="0%" stop-color="#41D1FF"></stop><stop offset="100%" stop-color="#BD34FE"></stop></linearGradient><linearGradient id="IconifyId1813088fe1fbc01fb467" x1="43.376%" x2="50.316%" y1="2.242%" y2="89.03%"><stop offset="0%" stop-color="#FFBD4F"></stop><stop offset="100%" stop-color="#FF940E"></stop></linearGradient></defs><path fill="url(#IconifyId1813088fe1fbc01fb466)" d="M255.153 37.938L134.897 252.976c-4.420 7.77-15.936 7.77-20.355 0L.837 37.938c-5.168-9.096 2.533-20.146 12.716-18.676l115.282 17.453l115.282-17.453c10.183-1.47 17.884 9.58 12.716 18.676Z"></path><path fill="url(#IconifyId1813088fe1fbc01fb467)" d="M185.432.063L96.44 17.501a3.268 3.268 0 0 0-2.634 3.257l-5.474 92.456a3.269 3.269 0 0 0 3.27 3.445h.063l87.976-15.754a3.27 3.27 0 0 0 2.833-3.258l6.162-92.456a3.27 3.27 0 0 0-3.27-3.445h-.063Z"></path><path fill="#FF940E" d="M81.36 28.587L7.015 39.637a3.27 3.27 0 0 0-2.634 3.257l-5.474 92.456a3.27 3.27 0 0 0 3.27 3.445h.063l74.345-11.05a3.27 3.27 0 0 0 2.833-3.258l6.162-92.456a3.27 3.27 0 0 0-3.27-3.445h-.063Z" style="mix-blend-mode:multiply"></path></svg>